<svg width="20" height="20" viewBox="0 0 20 20" fill="none" xmlns="http://www.w3.org/2000/svg">
<g clip-path="url(#clip0_105_247)">
<path d="M20 10.25C20 12.484 19.364 14.493 18.092 16.277C16.82 18.061 15.1773 19.2953 13.164 19.98C12.9293 20.0253 12.758 19.9943 12.65 19.887C12.5968 19.8351 12.5548 19.7728 12.5268 19.704C12.4987 19.6352 12.4852 19.5613 12.487 19.487V16.67C12.487 15.8067 12.2613 15.175 11.81 14.775C12.2604 14.7287 12.7067 14.6485 13.145 14.535C13.539 14.4283 13.9467 14.255 14.368 14.015C14.7722 13.7877 15.1301 13.4865 15.423 13.127C15.705 12.775 15.935 12.3077 16.113 11.725C16.291 11.1423 16.38 10.473 16.38 9.717C16.38 8.63967 16.0373 7.723 15.352 6.967C15.672 6.15767 15.637 5.25 15.247 4.244C15.0043 4.164 14.653 4.213 14.193 4.391C13.7759 4.54808 13.3747 4.74464 12.995 4.978L12.5 5.298C11.6871 5.06582 10.8454 4.94934 10 4.952C9.1545 4.94967 8.3129 5.06648 7.5 5.299C7.319 5.17396 7.1346 5.05391 6.947 4.939C6.717 4.79634 6.35433 4.625 5.859 4.425C5.365 4.225 4.99167 4.165 4.739 4.245C4.35767 5.24967 4.32767 6.157 4.649 6.967C3.96233 7.723 3.619 8.63967 3.619 9.717C3.619 10.473 3.70833 11.1403 3.887 11.719C4.065 12.297 4.29267 12.764 4.57 13.12C4.85666 13.4845 5.21289 13.7884 5.618 14.014C6.03933 14.254 6.44733 14.4273 6.842 14.534C7.23733 14.642 7.68233 14.7223 8.177 14.775C7.83033 15.095 7.61767 15.5533 7.539 16.15C7.35271 16.2407 7.15587 16.3079 6.953 16.35C6.70865 16.3979 6.45998 16.4204 6.211 16.417C5.92433 16.417 5.64 16.3213 5.358 16.13C5.076 15.938 4.835 15.66 4.635 15.296C4.47968 15.0201 4.26397 14.7828 4.004 14.602C3.748 14.424 3.533 14.3173 3.359 14.282L3.099 14.242C2.917 14.242 2.791 14.262 2.721 14.302C2.651 14.342 2.62933 14.393 2.656 14.455C2.68487 14.5231 2.72436 14.5862 2.773 14.642C2.82323 14.7018 2.88028 14.7555 2.943 14.802L3.033 14.868C3.22433 14.958 3.41333 15.1273 3.6 15.376C3.78667 15.6253 3.92333 15.852 4.01 16.056L4.14 16.363C4.25333 16.701 4.44467 16.9747 4.714 17.184C4.98333 17.394 5.274 17.5273 5.586 17.584C5.898 17.642 6.19967 17.6733 6.491 17.678C6.78167 17.682 7.02267 17.6663 7.214 17.631L7.513 17.578C7.513 17.916 7.51533 18.312 7.52 18.766L7.526 19.486C7.526 19.646 7.46933 19.7793 7.356 19.886C7.244 19.994 7.07067 20.0253 6.836 19.98C4.822 19.2947 3.17933 18.0603 1.908 16.277C0.636 14.4923 0 12.4833 0 10.25C0 8.39 0.447 6.675 1.341 5.105C2.20713 3.56464 3.46225 2.27849 4.981 1.375C6.4955 0.463316 8.23231 -0.0125011 10 3.15669e-06C11.768 -0.0126855 13.5052 0.463138 15.02 1.375C16.5384 2.27862 17.7932 3.56477 18.659 5.105C19.553 6.67567 20 8.39067 20 10.25Z" fill="black"/>
</g>
<defs>
<clipPath id="clip0_105_247">
<rect width="20" height="20" fill="white"/>
</clipPath>
</defs>
</svg>
