<svg width="20" height="16" viewBox="0 0 20 16" fill="none" xmlns="http://www.w3.org/2000/svg">
<path fill-rule="evenodd" clip-rule="evenodd" d="M1.53202 0.0804015C1.00433 0.258867 0.440384 0.721835 0.243244 1.13847C-0.00498261 1.66314 0.000610288 1.50411 1.87603e-05 8.03578C-0.000518992 13.3975 0.0101284 14.2407 0.0807891 14.4587C0.184199 14.7777 0.33434 15.0824 0.388061 15.0824C0.410916 15.0824 0.430758 15.1147 0.432156 15.1541C0.436889 15.2871 1.02132 15.7275 1.37451 15.8643L1.72513 16H10.0016H18.2781L18.6251 15.8657C19.0272 15.71 19.5736 15.2942 19.5736 15.1439C19.5736 15.1101 19.5945 15.0824 19.62 15.0824C19.6456 15.0824 19.7363 14.9212 19.8217 14.724L19.9769 14.3656L19.9935 8.20072C20.011 1.7413 20.0088 1.66819 19.7765 1.17993C19.5872 0.782107 19.1605 0.38572 18.7035 0.183111L18.2905 0L10.0188 0.00384237C3.4946 0.0068818 1.70168 0.0230538 1.53202 0.0804015ZM18.4432 0.950767C18.4847 0.995039 18.4511 1.06999 18.3249 1.21422C18.2279 1.32508 18.0156 1.58108 17.8532 1.78317C17.6907 1.9852 17.5414 2.15845 17.5213 2.16814C17.5013 2.17783 17.2119 2.51125 16.8781 2.90913C16.5444 3.30695 16.1977 3.71361 16.1076 3.8127C15.8689 4.07541 15.4374 4.57795 15.196 4.87455C15.0805 5.01649 14.8143 5.32668 14.6045 5.56393C14.3946 5.80112 14.0415 6.21035 13.8197 6.47335C13.2016 7.20602 13.1819 7.22913 12.831 7.63016C12.6501 7.83679 12.3207 8.22153 12.0989 8.48522C11.3142 9.41781 11.0462 9.6129 10.3646 9.74767C9.91806 9.83599 9.43263 9.75478 8.98242 9.5165C8.65552 9.34343 8.50694 9.20132 7.90439 8.48522C7.68257 8.22153 7.34378 7.82572 7.15154 7.60556C6.67164 7.056 6.69859 7.08731 6.15755 6.44857C5.8919 6.13482 5.58942 5.78437 5.48536 5.66973C5.38136 5.5551 5.21235 5.36155 5.10969 5.23963C4.86178 4.94509 3.80064 3.70672 3.76493 3.67025C3.74944 3.65448 3.5202 3.38351 3.25546 3.0681C2.99073 2.75269 2.60984 2.31398 2.4091 2.09319C2.2083 1.8724 2.00481 1.63166 1.95679 1.55825C1.90882 1.48485 1.78477 1.33431 1.68109 1.22374C1.47857 1.00777 1.49228 0.940903 1.74712 0.901333C1.83585 0.88757 5.61571 0.87914 10.1468 0.882638C15.963 0.887054 18.4023 0.907068 18.4432 0.950767ZM1.32214 2.08069C1.52632 2.31031 1.78826 2.61356 1.90425 2.75452C2.02025 2.89543 2.33693 3.26882 2.60806 3.58423C2.87914 3.89964 3.31456 4.41577 3.57564 4.73118C4.00187 5.24605 4.21858 5.49746 4.68831 6.02173C4.768 6.11062 5.05634 6.44926 5.32915 6.77414C5.60195 7.09907 5.87556 7.42148 5.93713 7.49058C5.99875 7.55968 6.16842 7.75421 6.3142 7.92281C6.45998 8.09141 6.64728 8.30779 6.73042 8.40361L6.88164 8.57778L6.73424 8.7477C6.6532 8.84112 6.32071 9.17414 5.99537 9.48777C5.67003 9.8014 5.13765 10.3199 4.81231 10.6402C4.48697 10.9603 3.9183 11.5154 3.54859 11.8735C3.17889 12.2316 2.8643 12.5394 2.84952 12.5575C2.83473 12.5756 2.53224 12.8719 2.17732 13.2159C1.82241 13.5599 1.4021 13.9679 1.24336 14.1226C1.02852 14.3318 0.939096 14.387 0.893817 14.3388C0.849506 14.2916 0.828426 12.6555 0.816381 8.32688C0.800625 2.67211 0.814714 1.66308 0.909681 1.66308C0.932374 1.66308 1.11801 1.85101 1.32214 2.08069ZM19.1692 2.02151C19.2327 2.68559 19.1765 14.2672 19.1094 14.3388C19.0467 14.4056 19.0022 14.3671 18.0148 13.3907C17.7915 13.1699 17.2221 12.6177 16.7494 12.1635C16.2768 11.7094 15.7085 11.1535 15.4867 10.9284C15.092 10.5277 14.9271 10.3668 13.9555 9.43369C13.6928 9.18136 13.3976 8.88728 13.2996 8.78016L13.1214 8.58546L13.484 8.15002C13.6834 7.91048 14.0183 7.52069 14.2282 7.28378C14.4381 7.04688 14.7393 6.69821 14.8975 6.50896C15.0556 6.31971 15.265 6.08143 15.3628 5.97953C15.4605 5.87756 15.5405 5.7842 15.5405 5.77199C15.5405 5.75983 15.6433 5.63647 15.769 5.49786C15.9651 5.28172 16.5033 4.64837 16.9273 4.13482C16.9951 4.05276 17.1655 3.85663 17.306 3.69892C17.4465 3.54122 17.7662 3.16869 18.0163 2.87105C18.2666 2.57342 18.5861 2.20467 18.7267 2.05156C18.8672 1.89849 18.9821 1.74842 18.9821 1.71814C18.9821 1.68786 19.0165 1.66308 19.0585 1.66308C19.1127 1.66308 19.1448 1.76723 19.1692 2.02151ZM8.45505 10.2248C9 10.5654 9.27421 10.6371 10.0285 10.6367L10.7276 10.6362L11.1847 10.3971C11.7005 10.1272 11.8313 10.0271 12.2671 9.56869L12.5749 9.24496L12.9362 9.6117C13.1349 9.81345 13.305 9.97849 13.3141 9.97849C13.3232 9.97849 13.4349 10.0881 13.5622 10.2222C13.6895 10.3563 14.0088 10.6724 14.2716 10.9247C14.5344 11.1771 14.8013 11.4372 14.8647 11.503C14.928 11.5686 15.233 11.8629 15.5425 12.157C15.8519 12.4511 16.1849 12.778 16.2825 12.8835C16.38 12.989 16.4685 13.0753 16.4792 13.0753C16.4988 13.0753 17.1647 13.7269 17.5488 14.1219C17.6638 14.2402 17.7683 14.3369 17.781 14.3369C17.7938 14.3369 17.9251 14.466 18.073 14.6237C18.2209 14.7814 18.365 14.9104 18.3931 14.9104C18.4213 14.9104 18.4443 14.9456 18.4443 14.9886C18.4443 15.0382 18.353 15.0802 18.1948 15.1033C17.8689 15.151 2.1343 15.151 1.80843 15.1033C1.65022 15.0802 1.55891 15.0382 1.55891 14.9886C1.55891 14.9456 1.58037 14.9104 1.60655 14.9104C1.63274 14.9104 1.73561 14.8233 1.8351 14.7168C1.93458 14.6103 2.25799 14.293 2.55375 14.0118C2.84952 13.7305 3.19104 13.3982 3.31268 13.2735C3.43432 13.1487 3.73579 12.853 3.98261 12.6165C4.22939 12.3799 4.46863 12.1477 4.51434 12.1004C4.56 12.053 4.9845 11.6414 5.45767 11.1856C5.93089 10.7299 6.48741 10.1844 6.69445 9.97362C6.90148 9.76275 7.15245 9.51495 7.2522 9.42291L7.43353 9.25551L7.82346 9.66463C8.03791 9.88961 8.32211 10.1417 8.45505 10.2248Z" fill="#C8E0D8"/>
</svg>
